<mxfile host="65bd71144e">
    <diagram id="rPDWg6iQg66EYdUiCauu" name="Page-1">
        <mxGraphModel dx="853" dy="670" grid="1" gridSize="10" guides="1" tooltips="1" connect="1" arrows="1" fold="1" page="1" pageScale="1" pageWidth="2339" pageHeight="3300" math="0" shadow="0">
            <root>
                <mxCell id="0"/>
                <mxCell id="1" parent="0"/>
                <mxCell id="2" value="" style="shape=actor;whiteSpace=wrap;html=1;fillColor=#ffe6cc;strokeColor=#d79b00;" parent="1" vertex="1">
                    <mxGeometry x="690" y="400" width="110" height="120" as="geometry"/>
                </mxCell>
                <mxCell id="3" value="Routes" style="ellipse;shape=cloud;whiteSpace=wrap;html=1;fillColor=#60a917;strokeColor=#2D7600;fontColor=#ffffff;" parent="1" vertex="1">
                    <mxGeometry x="370" y="180" width="160" height="120" as="geometry"/>
                </mxCell>
                <mxCell id="4" value="Buses" style="ellipse;shape=cloud;whiteSpace=wrap;html=1;fillColor=#1ba1e2;strokeColor=#006EAF;fontColor=#ffffff;" parent="1" vertex="1">
                    <mxGeometry x="570" y="180" width="160" height="120" as="geometry"/>
                </mxCell>
                <mxCell id="5" value="Bus stations" style="ellipse;shape=cloud;whiteSpace=wrap;html=1;fillColor=#6a00ff;strokeColor=#3700CC;fontColor=#ffffff;" parent="1" vertex="1">
                    <mxGeometry x="770" y="180" width="160" height="120" as="geometry"/>
                </mxCell>
            </root>
        </mxGraphModel>
    </diagram>
    <diagram id="hWFx6jYjEqti_37qU4vX" name="Page-2">
        <mxGraphModel dx="760" dy="575" grid="1" gridSize="10" guides="1" tooltips="1" connect="1" arrows="1" fold="1" page="1" pageScale="1" pageWidth="2339" pageHeight="3300" math="0" shadow="0">
            <root>
                <mxCell id="0jup39agsYS48c39fQPd-0"/>
                <mxCell id="0jup39agsYS48c39fQPd-1" parent="0jup39agsYS48c39fQPd-0"/>
                <mxCell id="GVV9WWUM1xxzByq_mQHF-24" style="edgeStyle=orthogonalEdgeStyle;rounded=0;orthogonalLoop=1;jettySize=auto;html=1;entryX=0.5;entryY=1;entryDx=0;entryDy=0;" edge="1" parent="0jup39agsYS48c39fQPd-1" source="p8Nw3UCzQGcJRVDX1NEx-0" target="GVV9WWUM1xxzByq_mQHF-23">
                    <mxGeometry relative="1" as="geometry"/>
                </mxCell>
                <mxCell id="p8Nw3UCzQGcJRVDX1NEx-0" value="Routes" style="whiteSpace=wrap;html=1;align=center;fillColor=#60a917;strokeColor=#2D7600;fontColor=#ffffff;" vertex="1" parent="0jup39agsYS48c39fQPd-1">
                    <mxGeometry x="1040" y="990" width="150" height="90" as="geometry"/>
                </mxCell>
                <mxCell id="GVV9WWUM1xxzByq_mQHF-29" style="edgeStyle=orthogonalEdgeStyle;rounded=0;orthogonalLoop=1;jettySize=auto;html=1;entryX=0.5;entryY=0;entryDx=0;entryDy=0;" edge="1" parent="0jup39agsYS48c39fQPd-1" source="R-MScnBZTdTU6yrx9KQ3-1" target="GVV9WWUM1xxzByq_mQHF-27">
                    <mxGeometry relative="1" as="geometry"/>
                </mxCell>
                <mxCell id="GVV9WWUM1xxzByq_mQHF-35" style="edgeStyle=orthogonalEdgeStyle;rounded=0;orthogonalLoop=1;jettySize=auto;html=1;entryX=0;entryY=0.5;entryDx=0;entryDy=0;" edge="1" parent="0jup39agsYS48c39fQPd-1" source="R-MScnBZTdTU6yrx9KQ3-1" target="GVV9WWUM1xxzByq_mQHF-30">
                    <mxGeometry relative="1" as="geometry"/>
                </mxCell>
                <mxCell id="R-MScnBZTdTU6yrx9KQ3-1" value="Busses" style="whiteSpace=wrap;html=1;align=center;fillColor=#1ba1e2;strokeColor=#006EAF;fontColor=#ffffff;" vertex="1" parent="0jup39agsYS48c39fQPd-1">
                    <mxGeometry x="780" y="790" width="150" height="90" as="geometry"/>
                </mxCell>
                <mxCell id="63mirfqV7lf9Vp2-4LCv-0" value="Bus stations" style="whiteSpace=wrap;html=1;align=center;fillColor=#6a00ff;strokeColor=#3700CC;fontColor=#ffffff;" vertex="1" parent="0jup39agsYS48c39fQPd-1">
                    <mxGeometry x="1320" y="790" width="150" height="90" as="geometry"/>
                </mxCell>
                <mxCell id="GVV9WWUM1xxzByq_mQHF-7" style="edgeStyle=orthogonalEdgeStyle;rounded=0;orthogonalLoop=1;jettySize=auto;html=1;entryX=0.179;entryY=1.002;entryDx=0;entryDy=0;entryPerimeter=0;" edge="1" parent="0jup39agsYS48c39fQPd-1" source="GVV9WWUM1xxzByq_mQHF-0" target="p8Nw3UCzQGcJRVDX1NEx-0">
                    <mxGeometry relative="1" as="geometry"/>
                </mxCell>
                <mxCell id="GVV9WWUM1xxzByq_mQHF-0" value="Code" style="ellipse;whiteSpace=wrap;html=1;align=center;fillColor=#e3c800;strokeColor=#B09500;fontColor=#000000;" vertex="1" parent="0jup39agsYS48c39fQPd-1">
                    <mxGeometry x="930" y="1190" width="100" height="40" as="geometry"/>
                </mxCell>
                <mxCell id="GVV9WWUM1xxzByq_mQHF-6" style="edgeStyle=orthogonalEdgeStyle;rounded=0;orthogonalLoop=1;jettySize=auto;html=1;entryX=0.75;entryY=1;entryDx=0;entryDy=0;" edge="1" parent="0jup39agsYS48c39fQPd-1" source="GVV9WWUM1xxzByq_mQHF-2" target="p8Nw3UCzQGcJRVDX1NEx-0">
                    <mxGeometry relative="1" as="geometry"/>
                </mxCell>
                <mxCell id="GVV9WWUM1xxzByq_mQHF-2" value="Distance" style="ellipse;whiteSpace=wrap;html=1;align=center;fillColor=#e3c800;strokeColor=#B09500;fontColor=#000000;" vertex="1" parent="0jup39agsYS48c39fQPd-1">
                    <mxGeometry x="1090" y="1190" width="100" height="40" as="geometry"/>
                </mxCell>
                <mxCell id="GVV9WWUM1xxzByq_mQHF-5" style="edgeStyle=orthogonalEdgeStyle;rounded=0;orthogonalLoop=1;jettySize=auto;html=1;entryX=1;entryY=1;entryDx=0;entryDy=0;" edge="1" parent="0jup39agsYS48c39fQPd-1" source="GVV9WWUM1xxzByq_mQHF-3" target="p8Nw3UCzQGcJRVDX1NEx-0">
                    <mxGeometry relative="1" as="geometry">
                        <Array as="points">
                            <mxPoint x="1210" y="1210"/>
                            <mxPoint x="1210" y="1080"/>
                        </Array>
                    </mxGeometry>
                </mxCell>
                <mxCell id="GVV9WWUM1xxzByq_mQHF-3" value="Source" style="ellipse;whiteSpace=wrap;html=1;align=center;fillColor=#e3c800;strokeColor=#B09500;fontColor=#000000;" vertex="1" parent="0jup39agsYS48c39fQPd-1">
                    <mxGeometry x="1250" y="1190" width="100" height="40" as="geometry"/>
                </mxCell>
                <mxCell id="GVV9WWUM1xxzByq_mQHF-8" style="edgeStyle=orthogonalEdgeStyle;rounded=0;orthogonalLoop=1;jettySize=auto;html=1;entryX=0;entryY=1;entryDx=0;entryDy=0;" edge="1" parent="0jup39agsYS48c39fQPd-1" source="GVV9WWUM1xxzByq_mQHF-4" target="p8Nw3UCzQGcJRVDX1NEx-0">
                    <mxGeometry relative="1" as="geometry">
                        <Array as="points">
                            <mxPoint x="830" y="1080"/>
                        </Array>
                    </mxGeometry>
                </mxCell>
                <mxCell id="GVV9WWUM1xxzByq_mQHF-4" value="Destination" style="ellipse;whiteSpace=wrap;html=1;align=center;fillColor=#e3c800;strokeColor=#B09500;fontColor=#000000;" vertex="1" parent="0jup39agsYS48c39fQPd-1">
                    <mxGeometry x="780" y="1190" width="100" height="40" as="geometry"/>
                </mxCell>
                <mxCell id="GVV9WWUM1xxzByq_mQHF-14" style="edgeStyle=orthogonalEdgeStyle;rounded=0;orthogonalLoop=1;jettySize=auto;html=1;" edge="1" parent="0jup39agsYS48c39fQPd-1" source="GVV9WWUM1xxzByq_mQHF-9">
                    <mxGeometry relative="1" as="geometry">
                        <mxPoint x="780" y="790" as="targetPoint"/>
                    </mxGeometry>
                </mxCell>
                <mxCell id="GVV9WWUM1xxzByq_mQHF-9" value="License-nr" style="ellipse;whiteSpace=wrap;html=1;align=center;fillColor=#e3c800;strokeColor=#B09500;fontColor=#000000;" vertex="1" parent="0jup39agsYS48c39fQPd-1">
                    <mxGeometry x="660" y="640" width="100" height="40" as="geometry"/>
                </mxCell>
                <mxCell id="GVV9WWUM1xxzByq_mQHF-15" style="edgeStyle=orthogonalEdgeStyle;rounded=0;orthogonalLoop=1;jettySize=auto;html=1;entryX=0.419;entryY=0.016;entryDx=0;entryDy=0;entryPerimeter=0;" edge="1" parent="0jup39agsYS48c39fQPd-1" source="GVV9WWUM1xxzByq_mQHF-10" target="R-MScnBZTdTU6yrx9KQ3-1">
                    <mxGeometry relative="1" as="geometry"/>
                </mxCell>
                <mxCell id="GVV9WWUM1xxzByq_mQHF-10" value="Driver" style="ellipse;whiteSpace=wrap;html=1;align=center;fillColor=#e3c800;strokeColor=#B09500;fontColor=#000000;" vertex="1" parent="0jup39agsYS48c39fQPd-1">
                    <mxGeometry x="790" y="640" width="100" height="40" as="geometry"/>
                </mxCell>
                <mxCell id="GVV9WWUM1xxzByq_mQHF-16" style="edgeStyle=orthogonalEdgeStyle;rounded=0;orthogonalLoop=1;jettySize=auto;html=1;entryX=0.883;entryY=-0.011;entryDx=0;entryDy=0;entryPerimeter=0;" edge="1" parent="0jup39agsYS48c39fQPd-1" source="GVV9WWUM1xxzByq_mQHF-11" target="R-MScnBZTdTU6yrx9KQ3-1">
                    <mxGeometry relative="1" as="geometry"/>
                </mxCell>
                <mxCell id="GVV9WWUM1xxzByq_mQHF-11" value="Capacity" style="ellipse;whiteSpace=wrap;html=1;align=center;fillColor=#e3c800;strokeColor=#B09500;fontColor=#000000;" vertex="1" parent="0jup39agsYS48c39fQPd-1">
                    <mxGeometry x="940" y="640" width="100" height="40" as="geometry"/>
                </mxCell>
                <mxCell id="GVV9WWUM1xxzByq_mQHF-13" style="edgeStyle=orthogonalEdgeStyle;rounded=0;orthogonalLoop=1;jettySize=auto;html=1;entryX=-0.003;entryY=0.087;entryDx=0;entryDy=0;entryPerimeter=0;" edge="1" parent="0jup39agsYS48c39fQPd-1" source="GVV9WWUM1xxzByq_mQHF-12" target="R-MScnBZTdTU6yrx9KQ3-1">
                    <mxGeometry relative="1" as="geometry"/>
                </mxCell>
                <mxCell id="GVV9WWUM1xxzByq_mQHF-12" value="Model" style="ellipse;whiteSpace=wrap;html=1;align=center;fillColor=#e3c800;strokeColor=#B09500;fontColor=#000000;" vertex="1" parent="0jup39agsYS48c39fQPd-1">
                    <mxGeometry x="580" y="780" width="100" height="40" as="geometry"/>
                </mxCell>
                <mxCell id="GVV9WWUM1xxzByq_mQHF-21" style="edgeStyle=orthogonalEdgeStyle;rounded=0;orthogonalLoop=1;jettySize=auto;html=1;entryX=1;entryY=0;entryDx=0;entryDy=0;" edge="1" parent="0jup39agsYS48c39fQPd-1" source="GVV9WWUM1xxzByq_mQHF-17" target="63mirfqV7lf9Vp2-4LCv-0">
                    <mxGeometry relative="1" as="geometry"/>
                </mxCell>
                <mxCell id="GVV9WWUM1xxzByq_mQHF-17" value="City" style="ellipse;whiteSpace=wrap;html=1;align=center;fillColor=#e3c800;strokeColor=#B09500;fontColor=#000000;" vertex="1" parent="0jup39agsYS48c39fQPd-1">
                    <mxGeometry x="1520" y="660" width="100" height="40" as="geometry"/>
                </mxCell>
                <mxCell id="GVV9WWUM1xxzByq_mQHF-22" style="edgeStyle=orthogonalEdgeStyle;rounded=0;orthogonalLoop=1;jettySize=auto;html=1;entryX=1.027;entryY=0.602;entryDx=0;entryDy=0;entryPerimeter=0;" edge="1" parent="0jup39agsYS48c39fQPd-1" source="GVV9WWUM1xxzByq_mQHF-18" target="63mirfqV7lf9Vp2-4LCv-0">
                    <mxGeometry relative="1" as="geometry"/>
                </mxCell>
                <mxCell id="GVV9WWUM1xxzByq_mQHF-18" value="Telephone-nr" style="ellipse;whiteSpace=wrap;html=1;align=center;fillColor=#e3c800;strokeColor=#B09500;fontColor=#000000;" vertex="1" parent="0jup39agsYS48c39fQPd-1">
                    <mxGeometry x="1570" y="760" width="100" height="40" as="geometry"/>
                </mxCell>
                <mxCell id="GVV9WWUM1xxzByq_mQHF-20" style="edgeStyle=orthogonalEdgeStyle;rounded=0;orthogonalLoop=1;jettySize=auto;html=1;" edge="1" parent="0jup39agsYS48c39fQPd-1" source="GVV9WWUM1xxzByq_mQHF-19" target="63mirfqV7lf9Vp2-4LCv-0">
                    <mxGeometry relative="1" as="geometry"/>
                </mxCell>
                <mxCell id="GVV9WWUM1xxzByq_mQHF-19" value="Address" style="ellipse;whiteSpace=wrap;html=1;align=center;fillColor=#e3c800;strokeColor=#B09500;fontColor=#000000;" vertex="1" parent="0jup39agsYS48c39fQPd-1">
                    <mxGeometry x="1340" y="650" width="100" height="40" as="geometry"/>
                </mxCell>
                <mxCell id="GVV9WWUM1xxzByq_mQHF-25" style="edgeStyle=orthogonalEdgeStyle;rounded=0;orthogonalLoop=1;jettySize=auto;html=1;entryX=0.5;entryY=1;entryDx=0;entryDy=0;" edge="1" parent="0jup39agsYS48c39fQPd-1" source="GVV9WWUM1xxzByq_mQHF-23" target="63mirfqV7lf9Vp2-4LCv-0">
                    <mxGeometry relative="1" as="geometry"/>
                </mxCell>
                <mxCell id="GVV9WWUM1xxzByq_mQHF-23" value="Have" style="shape=rhombus;perimeter=rhombusPerimeter;whiteSpace=wrap;html=1;align=center;fillColor=#e51400;strokeColor=#B20000;fontColor=#ffffff;" vertex="1" parent="0jup39agsYS48c39fQPd-1">
                    <mxGeometry x="1230" y="920" width="120" height="60" as="geometry"/>
                </mxCell>
                <mxCell id="GVV9WWUM1xxzByq_mQHF-33" style="edgeStyle=orthogonalEdgeStyle;rounded=0;orthogonalLoop=1;jettySize=auto;html=1;" edge="1" parent="0jup39agsYS48c39fQPd-1" source="GVV9WWUM1xxzByq_mQHF-27" target="p8Nw3UCzQGcJRVDX1NEx-0">
                    <mxGeometry relative="1" as="geometry"/>
                </mxCell>
                <mxCell id="GVV9WWUM1xxzByq_mQHF-27" value="cover" style="shape=rhombus;perimeter=rhombusPerimeter;whiteSpace=wrap;html=1;align=center;fillColor=#e51400;strokeColor=#B20000;fontColor=#ffffff;" vertex="1" parent="0jup39agsYS48c39fQPd-1">
                    <mxGeometry x="800" y="960" width="120" height="60" as="geometry"/>
                </mxCell>
                <mxCell id="GVV9WWUM1xxzByq_mQHF-32" style="edgeStyle=orthogonalEdgeStyle;rounded=0;orthogonalLoop=1;jettySize=auto;html=1;entryX=0;entryY=0.5;entryDx=0;entryDy=0;" edge="1" parent="0jup39agsYS48c39fQPd-1" source="GVV9WWUM1xxzByq_mQHF-30" target="63mirfqV7lf9Vp2-4LCv-0">
                    <mxGeometry relative="1" as="geometry"/>
                </mxCell>
                <mxCell id="GVV9WWUM1xxzByq_mQHF-30" value="visit" style="shape=rhombus;perimeter=rhombusPerimeter;whiteSpace=wrap;html=1;align=center;fillColor=#e51400;strokeColor=#B20000;fontColor=#ffffff;" vertex="1" parent="0jup39agsYS48c39fQPd-1">
                    <mxGeometry x="1060" y="820" width="120" height="60" as="geometry"/>
                </mxCell>
            </root>
        </mxGraphModel>
    </diagram>
    <diagram id="lnJEMu4xanCZuW3M_0Wn" name="Page-3">
        <mxGraphModel dx="760" dy="575" grid="1" gridSize="10" guides="1" tooltips="1" connect="1" arrows="1" fold="1" page="1" pageScale="1" pageWidth="2339" pageHeight="3300" math="0" shadow="0">
            <root>
                <mxCell id="EHbbjMEyC-5EQ2lsRwl5-0"/>
                <mxCell id="EHbbjMEyC-5EQ2lsRwl5-1" parent="EHbbjMEyC-5EQ2lsRwl5-0"/>
                <mxCell id="kFb8G-68aUByhDYKMxsI-1" style="edgeStyle=orthogonalEdgeStyle;rounded=0;orthogonalLoop=1;jettySize=auto;html=1;entryX=0;entryY=0.5;entryDx=0;entryDy=0;startArrow=none;startFill=0;endArrow=none;endFill=0;exitX=0;exitY=0.25;exitDx=0;exitDy=0;strokeWidth=4;" edge="1" parent="EHbbjMEyC-5EQ2lsRwl5-1" source="fv6EhQuBud_WcPpGVOid-13" target="kFb8G-68aUByhDYKMxsI-4">
                    <mxGeometry relative="1" as="geometry"/>
                </mxCell>
                <mxCell id="fv6EhQuBud_WcPpGVOid-13" value="Routes" style="shape=table;startSize=30;container=1;collapsible=1;childLayout=tableLayout;fixedRows=1;rowLines=0;fontStyle=1;align=center;resizeLast=1;fillColor=#60a917;strokeColor=#2D7600;fontColor=#ffffff;" vertex="1" parent="EHbbjMEyC-5EQ2lsRwl5-1">
                    <mxGeometry x="970" y="1080" width="180" height="160" as="geometry"/>
                </mxCell>
                <mxCell id="fv6EhQuBud_WcPpGVOid-14" value="" style="shape=partialRectangle;collapsible=0;dropTarget=0;pointerEvents=0;fillColor=#60a917;top=0;left=0;bottom=1;right=0;points=[[0,0.5],[1,0.5]];portConstraint=eastwest;strokeColor=#2D7600;fontColor=#ffffff;" vertex="1" parent="fv6EhQuBud_WcPpGVOid-13">
                    <mxGeometry y="30" width="180" height="30" as="geometry"/>
                </mxCell>
                <mxCell id="fv6EhQuBud_WcPpGVOid-15" value="PK" style="shape=partialRectangle;connectable=0;fillColor=#60a917;top=0;left=0;bottom=0;right=0;fontStyle=1;overflow=hidden;strokeColor=#2D7600;fontColor=#ffffff;" vertex="1" parent="fv6EhQuBud_WcPpGVOid-14">
                    <mxGeometry width="30" height="30" as="geometry"/>
                </mxCell>
                <mxCell id="fv6EhQuBud_WcPpGVOid-16" value="code:int" style="shape=partialRectangle;connectable=0;fillColor=#60a917;top=0;left=0;bottom=0;right=0;align=left;spacingLeft=6;fontStyle=5;overflow=hidden;strokeColor=#2D7600;fontColor=#ffffff;" vertex="1" parent="fv6EhQuBud_WcPpGVOid-14">
                    <mxGeometry x="30" width="150" height="30" as="geometry"/>
                </mxCell>
                <mxCell id="fv6EhQuBud_WcPpGVOid-17" value="" style="shape=partialRectangle;collapsible=0;dropTarget=0;pointerEvents=0;fillColor=#60a917;top=0;left=0;bottom=0;right=0;points=[[0,0.5],[1,0.5]];portConstraint=eastwest;strokeColor=#2D7600;fontColor=#ffffff;" vertex="1" parent="fv6EhQuBud_WcPpGVOid-13">
                    <mxGeometry y="60" width="180" height="30" as="geometry"/>
                </mxCell>
                <mxCell id="fv6EhQuBud_WcPpGVOid-18" value="" style="shape=partialRectangle;connectable=0;fillColor=#60a917;top=0;left=0;bottom=0;right=0;editable=1;overflow=hidden;strokeColor=#2D7600;fontColor=#ffffff;" vertex="1" parent="fv6EhQuBud_WcPpGVOid-17">
                    <mxGeometry width="30" height="30" as="geometry"/>
                </mxCell>
                <mxCell id="fv6EhQuBud_WcPpGVOid-19" value="Source:Varchar(30)" style="shape=partialRectangle;connectable=0;fillColor=#60a917;top=0;left=0;bottom=0;right=0;align=left;spacingLeft=6;overflow=hidden;strokeColor=#2D7600;fontColor=#ffffff;" vertex="1" parent="fv6EhQuBud_WcPpGVOid-17">
                    <mxGeometry x="30" width="150" height="30" as="geometry"/>
                </mxCell>
                <mxCell id="fv6EhQuBud_WcPpGVOid-20" value="" style="shape=partialRectangle;collapsible=0;dropTarget=0;pointerEvents=0;fillColor=#60a917;top=0;left=0;bottom=0;right=0;points=[[0,0.5],[1,0.5]];portConstraint=eastwest;strokeColor=#2D7600;fontColor=#ffffff;" vertex="1" parent="fv6EhQuBud_WcPpGVOid-13">
                    <mxGeometry y="90" width="180" height="30" as="geometry"/>
                </mxCell>
                <mxCell id="fv6EhQuBud_WcPpGVOid-21" value="" style="shape=partialRectangle;connectable=0;fillColor=#60a917;top=0;left=0;bottom=0;right=0;editable=1;overflow=hidden;strokeColor=#2D7600;fontColor=#ffffff;" vertex="1" parent="fv6EhQuBud_WcPpGVOid-20">
                    <mxGeometry width="30" height="30" as="geometry"/>
                </mxCell>
                <mxCell id="fv6EhQuBud_WcPpGVOid-22" value="Destination:Varchar(30)" style="shape=partialRectangle;connectable=0;fillColor=#60a917;top=0;left=0;bottom=0;right=0;align=left;spacingLeft=6;overflow=hidden;strokeColor=#2D7600;fontColor=#ffffff;" vertex="1" parent="fv6EhQuBud_WcPpGVOid-20">
                    <mxGeometry x="30" width="150" height="30" as="geometry"/>
                </mxCell>
                <mxCell id="fv6EhQuBud_WcPpGVOid-23" value="" style="shape=partialRectangle;collapsible=0;dropTarget=0;pointerEvents=0;fillColor=#60a917;top=0;left=0;bottom=0;right=0;points=[[0,0.5],[1,0.5]];portConstraint=eastwest;strokeColor=#2D7600;fontColor=#ffffff;" vertex="1" parent="fv6EhQuBud_WcPpGVOid-13">
                    <mxGeometry y="120" width="180" height="30" as="geometry"/>
                </mxCell>
                <mxCell id="fv6EhQuBud_WcPpGVOid-24" value="" style="shape=partialRectangle;connectable=0;fillColor=#60a917;top=0;left=0;bottom=0;right=0;editable=1;overflow=hidden;strokeColor=#2D7600;fontColor=#ffffff;" vertex="1" parent="fv6EhQuBud_WcPpGVOid-23">
                    <mxGeometry width="30" height="30" as="geometry"/>
                </mxCell>
                <mxCell id="fv6EhQuBud_WcPpGVOid-25" value="Distance:Float" style="shape=partialRectangle;connectable=0;fillColor=#60a917;top=0;left=0;bottom=0;right=0;align=left;spacingLeft=6;overflow=hidden;strokeColor=#2D7600;fontColor=#ffffff;" vertex="1" parent="fv6EhQuBud_WcPpGVOid-23">
                    <mxGeometry x="30" width="150" height="30" as="geometry"/>
                </mxCell>
                <mxCell id="kFb8G-68aUByhDYKMxsI-0" style="edgeStyle=orthogonalEdgeStyle;rounded=0;orthogonalLoop=1;jettySize=auto;html=1;startArrow=ERmany;startFill=0;endArrow=ERmany;endFill=0;strokeWidth=5;" edge="1" parent="EHbbjMEyC-5EQ2lsRwl5-1" source="gFUSdCo0hOsfSyF-0kav-0">
                    <mxGeometry relative="1" as="geometry">
                        <mxPoint x="1220" y="930" as="targetPoint"/>
                    </mxGeometry>
                </mxCell>
                <mxCell id="gFUSdCo0hOsfSyF-0kav-0" value="Busses" style="shape=table;startSize=30;container=1;collapsible=1;childLayout=tableLayout;fixedRows=1;rowLines=0;fontStyle=1;align=center;resizeLast=1;fillColor=#1ba1e2;strokeColor=#006EAF;fontColor=#ffffff;" vertex="1" parent="EHbbjMEyC-5EQ2lsRwl5-1">
                    <mxGeometry x="690" y="850" width="180" height="190" as="geometry"/>
                </mxCell>
                <mxCell id="gFUSdCo0hOsfSyF-0kav-1" value="" style="shape=partialRectangle;collapsible=0;dropTarget=0;pointerEvents=0;fillColor=#1ba1e2;top=0;left=0;bottom=1;right=0;points=[[0,0.5],[1,0.5]];portConstraint=eastwest;strokeColor=#006EAF;fontColor=#ffffff;" vertex="1" parent="gFUSdCo0hOsfSyF-0kav-0">
                    <mxGeometry y="30" width="180" height="30" as="geometry"/>
                </mxCell>
                <mxCell id="gFUSdCo0hOsfSyF-0kav-2" value="PK" style="shape=partialRectangle;connectable=0;fillColor=#1ba1e2;top=0;left=0;bottom=0;right=0;fontStyle=1;overflow=hidden;strokeColor=#006EAF;fontColor=#ffffff;" vertex="1" parent="gFUSdCo0hOsfSyF-0kav-1">
                    <mxGeometry width="30" height="30" as="geometry"/>
                </mxCell>
                <mxCell id="gFUSdCo0hOsfSyF-0kav-3" value="license" style="shape=partialRectangle;connectable=0;fillColor=#1ba1e2;top=0;left=0;bottom=0;right=0;align=left;spacingLeft=6;fontStyle=5;overflow=hidden;strokeColor=#006EAF;fontColor=#ffffff;" vertex="1" parent="gFUSdCo0hOsfSyF-0kav-1">
                    <mxGeometry x="30" width="150" height="30" as="geometry"/>
                </mxCell>
                <mxCell id="gFUSdCo0hOsfSyF-0kav-4" value="" style="shape=partialRectangle;collapsible=0;dropTarget=0;pointerEvents=0;fillColor=#1ba1e2;top=0;left=0;bottom=0;right=0;points=[[0,0.5],[1,0.5]];portConstraint=eastwest;strokeColor=#006EAF;fontColor=#ffffff;" vertex="1" parent="gFUSdCo0hOsfSyF-0kav-0">
                    <mxGeometry y="60" width="180" height="30" as="geometry"/>
                </mxCell>
                <mxCell id="gFUSdCo0hOsfSyF-0kav-5" value="" style="shape=partialRectangle;connectable=0;fillColor=#1ba1e2;top=0;left=0;bottom=0;right=0;editable=1;overflow=hidden;strokeColor=#006EAF;fontColor=#ffffff;" vertex="1" parent="gFUSdCo0hOsfSyF-0kav-4">
                    <mxGeometry width="30" height="30" as="geometry"/>
                </mxCell>
                <mxCell id="gFUSdCo0hOsfSyF-0kav-6" value="Model:Varchar(15)" style="shape=partialRectangle;connectable=0;fillColor=#1ba1e2;top=0;left=0;bottom=0;right=0;align=left;spacingLeft=6;overflow=hidden;strokeColor=#006EAF;fontColor=#ffffff;" vertex="1" parent="gFUSdCo0hOsfSyF-0kav-4">
                    <mxGeometry x="30" width="150" height="30" as="geometry"/>
                </mxCell>
                <mxCell id="gFUSdCo0hOsfSyF-0kav-7" value="" style="shape=partialRectangle;collapsible=0;dropTarget=0;pointerEvents=0;fillColor=#1ba1e2;top=0;left=0;bottom=0;right=0;points=[[0,0.5],[1,0.5]];portConstraint=eastwest;strokeColor=#006EAF;fontColor=#ffffff;" vertex="1" parent="gFUSdCo0hOsfSyF-0kav-0">
                    <mxGeometry y="90" width="180" height="30" as="geometry"/>
                </mxCell>
                <mxCell id="gFUSdCo0hOsfSyF-0kav-8" value="" style="shape=partialRectangle;connectable=0;fillColor=#1ba1e2;top=0;left=0;bottom=0;right=0;editable=1;overflow=hidden;strokeColor=#006EAF;fontColor=#ffffff;" vertex="1" parent="gFUSdCo0hOsfSyF-0kav-7">
                    <mxGeometry width="30" height="30" as="geometry"/>
                </mxCell>
                <mxCell id="gFUSdCo0hOsfSyF-0kav-9" value="capacity:int" style="shape=partialRectangle;connectable=0;fillColor=#1ba1e2;top=0;left=0;bottom=0;right=0;align=left;spacingLeft=6;overflow=hidden;strokeColor=#006EAF;fontColor=#ffffff;" vertex="1" parent="gFUSdCo0hOsfSyF-0kav-7">
                    <mxGeometry x="30" width="150" height="30" as="geometry"/>
                </mxCell>
                <mxCell id="gFUSdCo0hOsfSyF-0kav-10" value="" style="shape=partialRectangle;collapsible=0;dropTarget=0;pointerEvents=0;fillColor=#1ba1e2;top=0;left=0;bottom=0;right=0;points=[[0,0.5],[1,0.5]];portConstraint=eastwest;strokeColor=#006EAF;fontColor=#ffffff;" vertex="1" parent="gFUSdCo0hOsfSyF-0kav-0">
                    <mxGeometry y="120" width="180" height="40" as="geometry"/>
                </mxCell>
                <mxCell id="gFUSdCo0hOsfSyF-0kav-11" value="" style="shape=partialRectangle;connectable=0;fillColor=#1ba1e2;top=0;left=0;bottom=0;right=0;editable=1;overflow=hidden;strokeColor=#006EAF;fontColor=#ffffff;" vertex="1" parent="gFUSdCo0hOsfSyF-0kav-10">
                    <mxGeometry width="30" height="40" as="geometry"/>
                </mxCell>
                <mxCell id="gFUSdCo0hOsfSyF-0kav-12" value="driver:Varchar(20)" style="shape=partialRectangle;connectable=0;fillColor=#1ba1e2;top=0;left=0;bottom=0;right=0;align=left;spacingLeft=6;overflow=hidden;strokeColor=#006EAF;fontColor=#ffffff;" vertex="1" parent="gFUSdCo0hOsfSyF-0kav-10">
                    <mxGeometry x="30" width="150" height="40" as="geometry"/>
                </mxCell>
                <mxCell id="kFb8G-68aUByhDYKMxsI-4" value="" style="shape=partialRectangle;collapsible=0;dropTarget=0;pointerEvents=0;fillColor=none;top=0;left=0;bottom=0;right=0;points=[[0,0.5],[1,0.5]];portConstraint=eastwest;" vertex="1" parent="gFUSdCo0hOsfSyF-0kav-0">
                    <mxGeometry y="160" width="180" height="30" as="geometry"/>
                </mxCell>
                <mxCell id="kFb8G-68aUByhDYKMxsI-5" value="FK" style="shape=partialRectangle;connectable=0;fillColor=#1ba1e2;top=0;left=0;bottom=0;right=0;editable=1;overflow=hidden;strokeColor=#006EAF;fontColor=#ffffff;" vertex="1" parent="kFb8G-68aUByhDYKMxsI-4">
                    <mxGeometry width="30" height="30" as="geometry"/>
                </mxCell>
                <mxCell id="kFb8G-68aUByhDYKMxsI-6" value="route_code" style="shape=partialRectangle;connectable=0;fillColor=#1ba1e2;top=0;left=0;bottom=0;right=0;align=left;spacingLeft=6;overflow=hidden;strokeColor=#006EAF;fontColor=#ffffff;" vertex="1" parent="kFb8G-68aUByhDYKMxsI-4">
                    <mxGeometry x="30" width="150" height="30" as="geometry"/>
                </mxCell>
                <mxCell id="ZHiQ-cL7Fans_Xopcsw8-0" value="Bus stations" style="shape=table;startSize=30;container=1;collapsible=1;childLayout=tableLayout;fixedRows=1;rowLines=0;fontStyle=1;align=center;resizeLast=1;fillColor=#6a00ff;strokeColor=#3700CC;fontColor=#ffffff;" vertex="1" parent="EHbbjMEyC-5EQ2lsRwl5-1">
                    <mxGeometry x="1220" y="850" width="180" height="120" as="geometry"/>
                </mxCell>
                <mxCell id="ZHiQ-cL7Fans_Xopcsw8-1" value="" style="shape=partialRectangle;collapsible=0;dropTarget=0;pointerEvents=0;fillColor=#6a00ff;top=0;left=0;bottom=1;right=0;points=[[0,0.5],[1,0.5]];portConstraint=eastwest;strokeColor=#3700CC;fontColor=#ffffff;" vertex="1" parent="ZHiQ-cL7Fans_Xopcsw8-0">
                    <mxGeometry y="30" width="180" height="30" as="geometry"/>
                </mxCell>
                <mxCell id="ZHiQ-cL7Fans_Xopcsw8-2" value="PK" style="shape=partialRectangle;connectable=0;fillColor=#6a00ff;top=0;left=0;bottom=0;right=0;fontStyle=1;overflow=hidden;strokeColor=#3700CC;fontColor=#ffffff;" vertex="1" parent="ZHiQ-cL7Fans_Xopcsw8-1">
                    <mxGeometry width="30" height="30" as="geometry"/>
                </mxCell>
                <mxCell id="ZHiQ-cL7Fans_Xopcsw8-3" value="telnumber:varchar(30)" style="shape=partialRectangle;connectable=0;fillColor=#6a00ff;top=0;left=0;bottom=0;right=0;align=left;spacingLeft=6;fontStyle=5;overflow=hidden;strokeColor=#3700CC;fontColor=#ffffff;" vertex="1" parent="ZHiQ-cL7Fans_Xopcsw8-1">
                    <mxGeometry x="30" width="150" height="30" as="geometry"/>
                </mxCell>
                <mxCell id="ZHiQ-cL7Fans_Xopcsw8-4" value="" style="shape=partialRectangle;collapsible=0;dropTarget=0;pointerEvents=0;fillColor=#6a00ff;top=0;left=0;bottom=0;right=0;points=[[0,0.5],[1,0.5]];portConstraint=eastwest;strokeColor=#3700CC;fontColor=#ffffff;" vertex="1" parent="ZHiQ-cL7Fans_Xopcsw8-0">
                    <mxGeometry y="60" width="180" height="30" as="geometry"/>
                </mxCell>
                <mxCell id="ZHiQ-cL7Fans_Xopcsw8-5" value="" style="shape=partialRectangle;connectable=0;fillColor=#6a00ff;top=0;left=0;bottom=0;right=0;editable=1;overflow=hidden;strokeColor=#3700CC;fontColor=#ffffff;" vertex="1" parent="ZHiQ-cL7Fans_Xopcsw8-4">
                    <mxGeometry width="30" height="30" as="geometry"/>
                </mxCell>
                <mxCell id="ZHiQ-cL7Fans_Xopcsw8-6" value="address:Varchar(50)" style="shape=partialRectangle;connectable=0;fillColor=#6a00ff;top=0;left=0;bottom=0;right=0;align=left;spacingLeft=6;overflow=hidden;strokeColor=#3700CC;fontColor=#ffffff;" vertex="1" parent="ZHiQ-cL7Fans_Xopcsw8-4">
                    <mxGeometry x="30" width="150" height="30" as="geometry"/>
                </mxCell>
                <mxCell id="ZHiQ-cL7Fans_Xopcsw8-7" value="" style="shape=partialRectangle;collapsible=0;dropTarget=0;pointerEvents=0;fillColor=#6a00ff;top=0;left=0;bottom=0;right=0;points=[[0,0.5],[1,0.5]];portConstraint=eastwest;strokeColor=#3700CC;fontColor=#ffffff;" vertex="1" parent="ZHiQ-cL7Fans_Xopcsw8-0">
                    <mxGeometry y="90" width="180" height="30" as="geometry"/>
                </mxCell>
                <mxCell id="ZHiQ-cL7Fans_Xopcsw8-8" value="" style="shape=partialRectangle;connectable=0;fillColor=#6a00ff;top=0;left=0;bottom=0;right=0;editable=1;overflow=hidden;strokeColor=#3700CC;fontColor=#ffffff;" vertex="1" parent="ZHiQ-cL7Fans_Xopcsw8-7">
                    <mxGeometry width="30" height="30" as="geometry"/>
                </mxCell>
                <mxCell id="ZHiQ-cL7Fans_Xopcsw8-9" value="city:varchar" style="shape=partialRectangle;connectable=0;fillColor=#6a00ff;top=0;left=0;bottom=0;right=0;align=left;spacingLeft=6;overflow=hidden;strokeColor=#3700CC;fontColor=#ffffff;" vertex="1" parent="ZHiQ-cL7Fans_Xopcsw8-7">
                    <mxGeometry x="30" width="150" height="30" as="geometry"/>
                </mxCell>
                <mxCell id="kFb8G-68aUByhDYKMxsI-20" style="edgeStyle=orthogonalEdgeStyle;rounded=0;orthogonalLoop=1;jettySize=auto;html=1;startArrow=ERmany;startFill=0;endArrow=ERmany;endFill=0;strokeWidth=4;jumpSize=4;entryX=0.553;entryY=0.993;entryDx=0;entryDy=0;entryPerimeter=0;" edge="1" parent="EHbbjMEyC-5EQ2lsRwl5-1" source="fv6EhQuBud_WcPpGVOid-14" target="ZHiQ-cL7Fans_Xopcsw8-7">
                    <mxGeometry relative="1" as="geometry">
                        <mxPoint x="1320.44" y="1000.99" as="targetPoint"/>
                    </mxGeometry>
                </mxCell>
            </root>
        </mxGraphModel>
    </diagram>
    <diagram id="akvXq0qWnZtUlJIIo7xG" name="Page-4">
        <mxGraphModel dx="512" dy="402" grid="1" gridSize="10" guides="1" tooltips="1" connect="1" arrows="1" fold="1" page="1" pageScale="1" pageWidth="2339" pageHeight="3300" math="0" shadow="0">
            <root>
                <mxCell id="4R3N-xCgzTYn3r9QaSTT-0"/>
                <mxCell id="4R3N-xCgzTYn3r9QaSTT-1" parent="4R3N-xCgzTYn3r9QaSTT-0"/>
                <mxCell id="-Z69xdEhy98B4AEgBmyK-0" value="Routes" style="shape=table;startSize=30;container=1;collapsible=1;childLayout=tableLayout;fixedRows=1;rowLines=0;fontStyle=1;align=center;resizeLast=1;fillColor=#60a917;strokeColor=#2D7600;fontColor=#ffffff;" parent="4R3N-xCgzTYn3r9QaSTT-1" vertex="1">
                    <mxGeometry x="1260" y="1220" width="180" height="160" as="geometry"/>
                </mxCell>
                <mxCell id="-Z69xdEhy98B4AEgBmyK-1" value="" style="shape=partialRectangle;collapsible=0;dropTarget=0;pointerEvents=0;fillColor=#60a917;top=0;left=0;bottom=1;right=0;points=[[0,0.5],[1,0.5]];portConstraint=eastwest;strokeColor=#2D7600;fontColor=#ffffff;" parent="-Z69xdEhy98B4AEgBmyK-0" vertex="1">
                    <mxGeometry y="30" width="180" height="30" as="geometry"/>
                </mxCell>
                <mxCell id="-Z69xdEhy98B4AEgBmyK-2" value="PK" style="shape=partialRectangle;connectable=0;fillColor=#60a917;top=0;left=0;bottom=0;right=0;fontStyle=1;overflow=hidden;strokeColor=#2D7600;fontColor=#ffffff;" parent="-Z69xdEhy98B4AEgBmyK-1" vertex="1">
                    <mxGeometry width="30" height="30" as="geometry"/>
                </mxCell>
                <mxCell id="-Z69xdEhy98B4AEgBmyK-3" value="route_ID" style="shape=partialRectangle;connectable=0;fillColor=#60a917;top=0;left=0;bottom=0;right=0;align=left;spacingLeft=6;fontStyle=5;overflow=hidden;strokeColor=#2D7600;fontColor=#ffffff;" parent="-Z69xdEhy98B4AEgBmyK-1" vertex="1">
                    <mxGeometry x="30" width="150" height="30" as="geometry"/>
                </mxCell>
                <mxCell id="-Z69xdEhy98B4AEgBmyK-4" value="" style="shape=partialRectangle;collapsible=0;dropTarget=0;pointerEvents=0;fillColor=#60a917;top=0;left=0;bottom=0;right=0;points=[[0,0.5],[1,0.5]];portConstraint=eastwest;strokeColor=#2D7600;fontColor=#ffffff;" parent="-Z69xdEhy98B4AEgBmyK-0" vertex="1">
                    <mxGeometry y="60" width="180" height="30" as="geometry"/>
                </mxCell>
                <mxCell id="-Z69xdEhy98B4AEgBmyK-5" value="" style="shape=partialRectangle;connectable=0;fillColor=#60a917;top=0;left=0;bottom=0;right=0;editable=1;overflow=hidden;strokeColor=#2D7600;fontColor=#ffffff;" parent="-Z69xdEhy98B4AEgBmyK-4" vertex="1">
                    <mxGeometry width="30" height="30" as="geometry"/>
                </mxCell>
                <mxCell id="-Z69xdEhy98B4AEgBmyK-6" value="departure:Varchar(30)" style="shape=partialRectangle;connectable=0;fillColor=#60a917;top=0;left=0;bottom=0;right=0;align=left;spacingLeft=6;overflow=hidden;strokeColor=#2D7600;fontColor=#ffffff;" parent="-Z69xdEhy98B4AEgBmyK-4" vertex="1">
                    <mxGeometry x="30" width="150" height="30" as="geometry"/>
                </mxCell>
                <mxCell id="-Z69xdEhy98B4AEgBmyK-7" value="" style="shape=partialRectangle;collapsible=0;dropTarget=0;pointerEvents=0;fillColor=#60a917;top=0;left=0;bottom=0;right=0;points=[[0,0.5],[1,0.5]];portConstraint=eastwest;strokeColor=#2D7600;fontColor=#ffffff;" parent="-Z69xdEhy98B4AEgBmyK-0" vertex="1">
                    <mxGeometry y="90" width="180" height="30" as="geometry"/>
                </mxCell>
                <mxCell id="-Z69xdEhy98B4AEgBmyK-8" value="" style="shape=partialRectangle;connectable=0;fillColor=#60a917;top=0;left=0;bottom=0;right=0;editable=1;overflow=hidden;strokeColor=#2D7600;fontColor=#ffffff;" parent="-Z69xdEhy98B4AEgBmyK-7" vertex="1">
                    <mxGeometry width="30" height="30" as="geometry"/>
                </mxCell>
                <mxCell id="-Z69xdEhy98B4AEgBmyK-9" value="Destination:Varchar(30)" style="shape=partialRectangle;connectable=0;fillColor=#60a917;top=0;left=0;bottom=0;right=0;align=left;spacingLeft=6;overflow=hidden;strokeColor=#2D7600;fontColor=#ffffff;" parent="-Z69xdEhy98B4AEgBmyK-7" vertex="1">
                    <mxGeometry x="30" width="150" height="30" as="geometry"/>
                </mxCell>
                <mxCell id="-Z69xdEhy98B4AEgBmyK-10" value="" style="shape=partialRectangle;collapsible=0;dropTarget=0;pointerEvents=0;fillColor=#60a917;top=0;left=0;bottom=0;right=0;points=[[0,0.5],[1,0.5]];portConstraint=eastwest;strokeColor=#2D7600;fontColor=#ffffff;" parent="-Z69xdEhy98B4AEgBmyK-0" vertex="1">
                    <mxGeometry y="120" width="180" height="30" as="geometry"/>
                </mxCell>
                <mxCell id="-Z69xdEhy98B4AEgBmyK-11" value="" style="shape=partialRectangle;connectable=0;fillColor=#60a917;top=0;left=0;bottom=0;right=0;editable=1;overflow=hidden;strokeColor=#2D7600;fontColor=#ffffff;" parent="-Z69xdEhy98B4AEgBmyK-10" vertex="1">
                    <mxGeometry width="30" height="30" as="geometry"/>
                </mxCell>
                <mxCell id="-Z69xdEhy98B4AEgBmyK-12" value="Distance:Float" style="shape=partialRectangle;connectable=0;fillColor=#60a917;top=0;left=0;bottom=0;right=0;align=left;spacingLeft=6;overflow=hidden;strokeColor=#2D7600;fontColor=#ffffff;" parent="-Z69xdEhy98B4AEgBmyK-10" vertex="1">
                    <mxGeometry x="30" width="150" height="30" as="geometry"/>
                </mxCell>
                <mxCell id="-Z69xdEhy98B4AEgBmyK-14" value="Busses" style="shape=table;startSize=30;container=1;collapsible=1;childLayout=tableLayout;fixedRows=1;rowLines=0;fontStyle=1;align=center;resizeLast=1;fillColor=#1ba1e2;strokeColor=#006EAF;fontColor=#ffffff;" parent="4R3N-xCgzTYn3r9QaSTT-1" vertex="1">
                    <mxGeometry x="1010" y="930" width="180" height="220" as="geometry"/>
                </mxCell>
                <mxCell id="fVpB4AGGwj-XwXVDYTtt-1" value="" style="shape=partialRectangle;collapsible=0;dropTarget=0;pointerEvents=0;fillColor=none;top=0;left=0;bottom=0;right=0;points=[[0,0.5],[1,0.5]];portConstraint=eastwest;" parent="-Z69xdEhy98B4AEgBmyK-14" vertex="1">
                    <mxGeometry y="30" width="180" height="30" as="geometry"/>
                </mxCell>
                <mxCell id="fVpB4AGGwj-XwXVDYTtt-2" value="PK" style="shape=partialRectangle;connectable=0;fillColor=#1ba1e2;top=0;left=0;bottom=0;right=0;editable=1;overflow=hidden;strokeColor=#006EAF;fontColor=#ffffff;fontStyle=1" parent="fVpB4AGGwj-XwXVDYTtt-1" vertex="1">
                    <mxGeometry width="30" height="30" as="geometry"/>
                </mxCell>
                <mxCell id="fVpB4AGGwj-XwXVDYTtt-3" value="bus_ID" style="shape=partialRectangle;connectable=0;fillColor=#1ba1e2;top=0;left=0;bottom=0;right=0;align=left;spacingLeft=6;overflow=hidden;strokeColor=#006EAF;fontColor=#ffffff;fontStyle=5" parent="fVpB4AGGwj-XwXVDYTtt-1" vertex="1">
                    <mxGeometry x="30" width="150" height="30" as="geometry"/>
                </mxCell>
                <mxCell id="-Z69xdEhy98B4AEgBmyK-15" value="" style="shape=partialRectangle;collapsible=0;dropTarget=0;pointerEvents=0;fillColor=#1ba1e2;top=0;left=0;bottom=1;right=0;points=[[0,0.5],[1,0.5]];portConstraint=eastwest;strokeColor=#006EAF;fontColor=#ffffff;" parent="-Z69xdEhy98B4AEgBmyK-14" vertex="1">
                    <mxGeometry y="60" width="180" height="30" as="geometry"/>
                </mxCell>
                <mxCell id="-Z69xdEhy98B4AEgBmyK-16" value="" style="shape=partialRectangle;connectable=0;fillColor=#1ba1e2;top=0;left=0;bottom=0;right=0;fontStyle=1;overflow=hidden;strokeColor=#006EAF;fontColor=#ffffff;" parent="-Z69xdEhy98B4AEgBmyK-15" vertex="1">
                    <mxGeometry width="30" height="30" as="geometry"/>
                </mxCell>
                <mxCell id="-Z69xdEhy98B4AEgBmyK-17" value="license:Varchar(15)" style="shape=partialRectangle;connectable=0;fillColor=#1ba1e2;top=0;left=0;bottom=0;right=0;align=left;spacingLeft=6;fontStyle=0;overflow=hidden;strokeColor=#006EAF;fontColor=#ffffff;" parent="-Z69xdEhy98B4AEgBmyK-15" vertex="1">
                    <mxGeometry x="30" width="150" height="30" as="geometry"/>
                </mxCell>
                <mxCell id="-Z69xdEhy98B4AEgBmyK-18" value="" style="shape=partialRectangle;collapsible=0;dropTarget=0;pointerEvents=0;fillColor=#1ba1e2;top=0;left=0;bottom=0;right=0;points=[[0,0.5],[1,0.5]];portConstraint=eastwest;strokeColor=#006EAF;fontColor=#ffffff;" parent="-Z69xdEhy98B4AEgBmyK-14" vertex="1">
                    <mxGeometry y="90" width="180" height="30" as="geometry"/>
                </mxCell>
                <mxCell id="-Z69xdEhy98B4AEgBmyK-19" value="" style="shape=partialRectangle;connectable=0;fillColor=#1ba1e2;top=0;left=0;bottom=0;right=0;editable=1;overflow=hidden;strokeColor=#006EAF;fontColor=#ffffff;" parent="-Z69xdEhy98B4AEgBmyK-18" vertex="1">
                    <mxGeometry width="30" height="30" as="geometry"/>
                </mxCell>
                <mxCell id="-Z69xdEhy98B4AEgBmyK-20" value="Model:Varchar(15)" style="shape=partialRectangle;connectable=0;fillColor=#1ba1e2;top=0;left=0;bottom=0;right=0;align=left;spacingLeft=6;overflow=hidden;strokeColor=#006EAF;fontColor=#ffffff;" parent="-Z69xdEhy98B4AEgBmyK-18" vertex="1">
                    <mxGeometry x="30" width="150" height="30" as="geometry"/>
                </mxCell>
                <mxCell id="-Z69xdEhy98B4AEgBmyK-21" value="" style="shape=partialRectangle;collapsible=0;dropTarget=0;pointerEvents=0;fillColor=#1ba1e2;top=0;left=0;bottom=0;right=0;points=[[0,0.5],[1,0.5]];portConstraint=eastwest;strokeColor=#006EAF;fontColor=#ffffff;" parent="-Z69xdEhy98B4AEgBmyK-14" vertex="1">
                    <mxGeometry y="120" width="180" height="30" as="geometry"/>
                </mxCell>
                <mxCell id="-Z69xdEhy98B4AEgBmyK-22" value="" style="shape=partialRectangle;connectable=0;fillColor=#1ba1e2;top=0;left=0;bottom=0;right=0;editable=1;overflow=hidden;strokeColor=#006EAF;fontColor=#ffffff;" parent="-Z69xdEhy98B4AEgBmyK-21" vertex="1">
                    <mxGeometry width="30" height="30" as="geometry"/>
                </mxCell>
                <mxCell id="-Z69xdEhy98B4AEgBmyK-23" value="capacity:int" style="shape=partialRectangle;connectable=0;fillColor=#1ba1e2;top=0;left=0;bottom=0;right=0;align=left;spacingLeft=6;overflow=hidden;strokeColor=#006EAF;fontColor=#ffffff;" parent="-Z69xdEhy98B4AEgBmyK-21" vertex="1">
                    <mxGeometry x="30" width="150" height="30" as="geometry"/>
                </mxCell>
                <mxCell id="-Z69xdEhy98B4AEgBmyK-24" value="" style="shape=partialRectangle;collapsible=0;dropTarget=0;pointerEvents=0;fillColor=#1ba1e2;top=0;left=0;bottom=0;right=0;points=[[0,0.5],[1,0.5]];portConstraint=eastwest;strokeColor=#006EAF;fontColor=#ffffff;" parent="-Z69xdEhy98B4AEgBmyK-14" vertex="1">
                    <mxGeometry y="150" width="180" height="40" as="geometry"/>
                </mxCell>
                <mxCell id="-Z69xdEhy98B4AEgBmyK-25" value="" style="shape=partialRectangle;connectable=0;fillColor=#1ba1e2;top=0;left=0;bottom=0;right=0;editable=1;overflow=hidden;strokeColor=#006EAF;fontColor=#ffffff;" parent="-Z69xdEhy98B4AEgBmyK-24" vertex="1">
                    <mxGeometry width="30" height="40" as="geometry"/>
                </mxCell>
                <mxCell id="-Z69xdEhy98B4AEgBmyK-26" value="driver:Varchar(20)" style="shape=partialRectangle;connectable=0;fillColor=#1ba1e2;top=0;left=0;bottom=0;right=0;align=left;spacingLeft=6;overflow=hidden;strokeColor=#006EAF;fontColor=#ffffff;" parent="-Z69xdEhy98B4AEgBmyK-24" vertex="1">
                    <mxGeometry x="30" width="150" height="40" as="geometry"/>
                </mxCell>
                <mxCell id="-Z69xdEhy98B4AEgBmyK-27" value="" style="shape=partialRectangle;collapsible=0;dropTarget=0;pointerEvents=0;fillColor=none;top=0;left=0;bottom=0;right=0;points=[[0,0.5],[1,0.5]];portConstraint=eastwest;" parent="-Z69xdEhy98B4AEgBmyK-14" vertex="1">
                    <mxGeometry y="190" width="180" height="30" as="geometry"/>
                </mxCell>
                <mxCell id="-Z69xdEhy98B4AEgBmyK-28" value="FK" style="shape=partialRectangle;connectable=0;fillColor=#1ba1e2;top=0;left=0;bottom=0;right=0;editable=1;overflow=hidden;strokeColor=#006EAF;fontColor=#ffffff;" parent="-Z69xdEhy98B4AEgBmyK-27" vertex="1">
                    <mxGeometry width="30" height="30" as="geometry"/>
                </mxCell>
                <mxCell id="-Z69xdEhy98B4AEgBmyK-29" value="route_code" style="shape=partialRectangle;connectable=0;fillColor=#1ba1e2;top=0;left=0;bottom=0;right=0;align=left;spacingLeft=6;overflow=hidden;strokeColor=#006EAF;fontColor=#ffffff;" parent="-Z69xdEhy98B4AEgBmyK-27" vertex="1">
                    <mxGeometry x="30" width="150" height="30" as="geometry"/>
                </mxCell>
                <mxCell id="-Z69xdEhy98B4AEgBmyK-30" value="Bus stations" style="shape=table;startSize=30;container=1;collapsible=1;childLayout=tableLayout;fixedRows=1;rowLines=0;fontStyle=1;align=center;resizeLast=1;fillColor=#6a00ff;strokeColor=#3700CC;fontColor=#ffffff;" parent="4R3N-xCgzTYn3r9QaSTT-1" vertex="1">
                    <mxGeometry x="1600" y="930" width="180" height="150" as="geometry"/>
                </mxCell>
                <mxCell id="fVpB4AGGwj-XwXVDYTtt-5" value="" style="shape=partialRectangle;collapsible=0;dropTarget=0;pointerEvents=0;fillColor=none;top=0;left=0;bottom=0;right=0;points=[[0,0.5],[1,0.5]];portConstraint=eastwest;" parent="-Z69xdEhy98B4AEgBmyK-30" vertex="1">
                    <mxGeometry y="30" width="180" height="30" as="geometry"/>
                </mxCell>
                <mxCell id="fVpB4AGGwj-XwXVDYTtt-6" value="PK" style="shape=partialRectangle;connectable=0;fillColor=#6a00ff;top=0;left=0;bottom=0;right=0;editable=1;overflow=hidden;strokeColor=#3700CC;fontColor=#ffffff;fontStyle=1" parent="fVpB4AGGwj-XwXVDYTtt-5" vertex="1">
                    <mxGeometry width="30" height="30" as="geometry"/>
                </mxCell>
                <mxCell id="fVpB4AGGwj-XwXVDYTtt-7" value="station_ID" style="shape=partialRectangle;connectable=0;fillColor=#6a00ff;top=0;left=0;bottom=0;right=0;align=left;spacingLeft=6;overflow=hidden;strokeColor=#3700CC;fontColor=#ffffff;fontStyle=5" parent="fVpB4AGGwj-XwXVDYTtt-5" vertex="1">
                    <mxGeometry x="30" width="150" height="30" as="geometry"/>
                </mxCell>
                <mxCell id="-Z69xdEhy98B4AEgBmyK-31" value="" style="shape=partialRectangle;collapsible=0;dropTarget=0;pointerEvents=0;fillColor=#6a00ff;top=0;left=0;bottom=1;right=0;points=[[0,0.5],[1,0.5]];portConstraint=eastwest;strokeColor=#3700CC;fontColor=#ffffff;" parent="-Z69xdEhy98B4AEgBmyK-30" vertex="1">
                    <mxGeometry y="60" width="180" height="30" as="geometry"/>
                </mxCell>
                <mxCell id="-Z69xdEhy98B4AEgBmyK-32" value="" style="shape=partialRectangle;connectable=0;fillColor=none;top=0;left=0;bottom=0;right=0;fontStyle=1;overflow=hidden;" parent="-Z69xdEhy98B4AEgBmyK-31" vertex="1">
                    <mxGeometry width="30" height="30" as="geometry"/>
                </mxCell>
                <mxCell id="-Z69xdEhy98B4AEgBmyK-33" value="tel_number:Varchar(30)" style="shape=partialRectangle;connectable=0;fillColor=none;top=0;left=0;bottom=0;right=0;align=left;spacingLeft=6;fontStyle=5;overflow=hidden;" parent="-Z69xdEhy98B4AEgBmyK-31" vertex="1">
                    <mxGeometry x="30" width="150" height="30" as="geometry"/>
                </mxCell>
                <mxCell id="-Z69xdEhy98B4AEgBmyK-34" value="" style="shape=partialRectangle;collapsible=0;dropTarget=0;pointerEvents=0;fillColor=#6a00ff;top=0;left=0;bottom=0;right=0;points=[[0,0.5],[1,0.5]];portConstraint=eastwest;strokeColor=#3700CC;fontColor=#ffffff;" parent="-Z69xdEhy98B4AEgBmyK-30" vertex="1">
                    <mxGeometry y="90" width="180" height="30" as="geometry"/>
                </mxCell>
                <mxCell id="-Z69xdEhy98B4AEgBmyK-35" value="" style="shape=partialRectangle;connectable=0;fillColor=none;top=0;left=0;bottom=0;right=0;editable=1;overflow=hidden;" parent="-Z69xdEhy98B4AEgBmyK-34" vertex="1">
                    <mxGeometry width="30" height="30" as="geometry"/>
                </mxCell>
                <mxCell id="-Z69xdEhy98B4AEgBmyK-36" value="address:Varchar(50)" style="shape=partialRectangle;connectable=0;fillColor=none;top=0;left=0;bottom=0;right=0;align=left;spacingLeft=6;overflow=hidden;" parent="-Z69xdEhy98B4AEgBmyK-34" vertex="1">
                    <mxGeometry x="30" width="150" height="30" as="geometry"/>
                </mxCell>
                <mxCell id="-Z69xdEhy98B4AEgBmyK-37" value="" style="shape=partialRectangle;collapsible=0;dropTarget=0;pointerEvents=0;fillColor=#6a00ff;top=0;left=0;bottom=0;right=0;points=[[0,0.5],[1,0.5]];portConstraint=eastwest;strokeColor=#3700CC;fontColor=#ffffff;" parent="-Z69xdEhy98B4AEgBmyK-30" vertex="1">
                    <mxGeometry y="120" width="180" height="30" as="geometry"/>
                </mxCell>
                <mxCell id="-Z69xdEhy98B4AEgBmyK-38" value="" style="shape=partialRectangle;connectable=0;fillColor=none;top=0;left=0;bottom=0;right=0;editable=1;overflow=hidden;" parent="-Z69xdEhy98B4AEgBmyK-37" vertex="1">
                    <mxGeometry width="30" height="30" as="geometry"/>
                </mxCell>
                <mxCell id="-Z69xdEhy98B4AEgBmyK-39" value="city:varchar" style="shape=partialRectangle;connectable=0;fillColor=none;top=0;left=0;bottom=0;right=0;align=left;spacingLeft=6;overflow=hidden;" parent="-Z69xdEhy98B4AEgBmyK-37" vertex="1">
                    <mxGeometry x="30" width="150" height="30" as="geometry"/>
                </mxCell>
                <mxCell id="P3unJFINV5b6uYHSOgJc-0" value="Stop_Number" style="shape=table;startSize=30;container=1;collapsible=1;childLayout=tableLayout;fixedRows=1;rowLines=0;fontStyle=1;align=center;resizeLast=1;fillColor=#a0522d;strokeColor=#6D1F00;fontColor=#ffffff;" parent="4R3N-xCgzTYn3r9QaSTT-1" vertex="1">
                    <mxGeometry x="1630" y="1190" width="180" height="150" as="geometry"/>
                </mxCell>
                <mxCell id="P3unJFINV5b6uYHSOgJc-1" value="" style="shape=partialRectangle;collapsible=0;dropTarget=0;pointerEvents=0;fillColor=#a0522d;top=0;left=0;bottom=1;right=0;points=[[0,0.5],[1,0.5]];portConstraint=eastwest;strokeColor=#6D1F00;fontColor=#ffffff;" parent="P3unJFINV5b6uYHSOgJc-0" vertex="1">
                    <mxGeometry y="30" width="180" height="30" as="geometry"/>
                </mxCell>
                <mxCell id="P3unJFINV5b6uYHSOgJc-2" value="PK" style="shape=partialRectangle;connectable=0;fillColor=#a0522d;top=0;left=0;bottom=0;right=0;fontStyle=1;overflow=hidden;strokeColor=#6D1F00;fontColor=#ffffff;" parent="P3unJFINV5b6uYHSOgJc-1" vertex="1">
                    <mxGeometry width="30" height="30" as="geometry"/>
                </mxCell>
                <mxCell id="P3unJFINV5b6uYHSOgJc-3" value="stop_ID" style="shape=partialRectangle;connectable=0;fillColor=#a0522d;top=0;left=0;bottom=0;right=0;align=left;spacingLeft=6;fontStyle=5;overflow=hidden;strokeColor=#6D1F00;fontColor=#ffffff;" parent="P3unJFINV5b6uYHSOgJc-1" vertex="1">
                    <mxGeometry x="30" width="150" height="30" as="geometry"/>
                </mxCell>
                <mxCell id="P3unJFINV5b6uYHSOgJc-4" value="" style="shape=partialRectangle;collapsible=0;dropTarget=0;pointerEvents=0;fillColor=#a0522d;top=0;left=0;bottom=0;right=0;points=[[0,0.5],[1,0.5]];portConstraint=eastwest;strokeColor=#6D1F00;fontColor=#ffffff;" parent="P3unJFINV5b6uYHSOgJc-0" vertex="1">
                    <mxGeometry y="60" width="180" height="30" as="geometry"/>
                </mxCell>
                <mxCell id="P3unJFINV5b6uYHSOgJc-5" value="FK" style="shape=partialRectangle;connectable=0;fillColor=#a0522d;top=0;left=0;bottom=0;right=0;editable=1;overflow=hidden;strokeColor=#6D1F00;fontColor=#ffffff;" parent="P3unJFINV5b6uYHSOgJc-4" vertex="1">
                    <mxGeometry width="30" height="30" as="geometry"/>
                </mxCell>
                <mxCell id="P3unJFINV5b6uYHSOgJc-6" value="route_ID" style="shape=partialRectangle;connectable=0;fillColor=#a0522d;top=0;left=0;bottom=0;right=0;align=left;spacingLeft=6;overflow=hidden;strokeColor=#6D1F00;fontColor=#ffffff;" parent="P3unJFINV5b6uYHSOgJc-4" vertex="1">
                    <mxGeometry x="30" width="150" height="30" as="geometry"/>
                </mxCell>
                <mxCell id="P3unJFINV5b6uYHSOgJc-7" value="" style="shape=partialRectangle;collapsible=0;dropTarget=0;pointerEvents=0;fillColor=#a0522d;top=0;left=0;bottom=0;right=0;points=[[0,0.5],[1,0.5]];portConstraint=eastwest;strokeColor=#6D1F00;fontColor=#ffffff;" parent="P3unJFINV5b6uYHSOgJc-0" vertex="1">
                    <mxGeometry y="90" width="180" height="30" as="geometry"/>
                </mxCell>
                <mxCell id="P3unJFINV5b6uYHSOgJc-8" value="FK" style="shape=partialRectangle;connectable=0;fillColor=#a0522d;top=0;left=0;bottom=0;right=0;editable=1;overflow=hidden;strokeColor=#6D1F00;fontColor=#ffffff;" parent="P3unJFINV5b6uYHSOgJc-7" vertex="1">
                    <mxGeometry width="30" height="30" as="geometry"/>
                </mxCell>
                <mxCell id="P3unJFINV5b6uYHSOgJc-9" value="station_ID" style="shape=partialRectangle;connectable=0;fillColor=#a0522d;top=0;left=0;bottom=0;right=0;align=left;spacingLeft=6;overflow=hidden;strokeColor=#6D1F00;fontColor=#ffffff;" parent="P3unJFINV5b6uYHSOgJc-7" vertex="1">
                    <mxGeometry x="30" width="150" height="30" as="geometry"/>
                </mxCell>
                <mxCell id="P3unJFINV5b6uYHSOgJc-10" value="" style="shape=partialRectangle;collapsible=0;dropTarget=0;pointerEvents=0;fillColor=#a0522d;top=0;left=0;bottom=0;right=0;points=[[0,0.5],[1,0.5]];portConstraint=eastwest;strokeColor=#6D1F00;fontColor=#ffffff;" parent="P3unJFINV5b6uYHSOgJc-0" vertex="1">
                    <mxGeometry y="120" width="180" height="30" as="geometry"/>
                </mxCell>
                <mxCell id="P3unJFINV5b6uYHSOgJc-11" value="" style="shape=partialRectangle;connectable=0;fillColor=#a0522d;top=0;left=0;bottom=0;right=0;editable=1;overflow=hidden;strokeColor=#6D1F00;fontColor=#ffffff;" parent="P3unJFINV5b6uYHSOgJc-10" vertex="1">
                    <mxGeometry width="30" height="30" as="geometry"/>
                </mxCell>
                <mxCell id="P3unJFINV5b6uYHSOgJc-12" value="route_number:int" style="shape=partialRectangle;connectable=0;fillColor=#a0522d;top=0;left=0;bottom=0;right=0;align=left;spacingLeft=6;overflow=hidden;strokeColor=#6D1F00;fontColor=#ffffff;" parent="P3unJFINV5b6uYHSOgJc-10" vertex="1">
                    <mxGeometry x="30" width="150" height="30" as="geometry"/>
                </mxCell>
                <mxCell id="P3unJFINV5b6uYHSOgJc-13" style="edgeStyle=orthogonalEdgeStyle;rounded=0;jumpSize=4;orthogonalLoop=1;jettySize=auto;html=1;entryX=0;entryY=0.5;entryDx=0;entryDy=0;startArrow=none;startFill=0;endArrow=none;endFill=0;strokeWidth=4;" parent="4R3N-xCgzTYn3r9QaSTT-1" source="-Z69xdEhy98B4AEgBmyK-1" target="P3unJFINV5b6uYHSOgJc-4" edge="1">
                    <mxGeometry relative="1" as="geometry"/>
                </mxCell>
                <mxCell id="P3unJFINV5b6uYHSOgJc-14" style="edgeStyle=orthogonalEdgeStyle;rounded=0;jumpSize=4;orthogonalLoop=1;jettySize=auto;html=1;entryX=1;entryY=0.5;entryDx=0;entryDy=0;startArrow=none;startFill=0;endArrow=none;endFill=0;strokeWidth=4;exitX=1;exitY=0.5;exitDx=0;exitDy=0;" parent="4R3N-xCgzTYn3r9QaSTT-1" source="fVpB4AGGwj-XwXVDYTtt-5" target="P3unJFINV5b6uYHSOgJc-7" edge="1">
                    <mxGeometry relative="1" as="geometry"/>
                </mxCell>
                <mxCell id="P3unJFINV5b6uYHSOgJc-15" style="edgeStyle=orthogonalEdgeStyle;rounded=0;jumpSize=4;orthogonalLoop=1;jettySize=auto;html=1;entryX=0.08;entryY=1.033;entryDx=0;entryDy=0;entryPerimeter=0;startArrow=none;startFill=0;endArrow=none;endFill=0;strokeWidth=4;" parent="4R3N-xCgzTYn3r9QaSTT-1" source="-Z69xdEhy98B4AEgBmyK-1" target="-Z69xdEhy98B4AEgBmyK-27" edge="1">
                    <mxGeometry relative="1" as="geometry">
                        <Array as="points">
                            <mxPoint x="1024" y="1265"/>
                        </Array>
                    </mxGeometry>
                </mxCell>
            </root>
        </mxGraphModel>
    </diagram>
</mxfile>